<svg xmlns="http://www.w3.org/2000/svg" viewBox="0 0 700 200"><path d="M0 102.3V2.8h13.2v87.8h49v11.7H0zm80.1 0V2.8h13.2v99.6H80.1zm36.3 0V2.8h13.5L182.2 81V2.8h12.6v99.6h-13.5L129 24.1v78.2h-12.6zm100.8 0V2.8h72v11.7h-58.8V45h55.1v11.7h-55.1v33.9h61.1v11.7h-74.3zm93.2 0V2.8h67.2v11.7h-54v30.8h46.7V57h-46.7v45.2h-13.2zm80.3-48.5c0-16.5 4.4-29.5 13.3-38.8 8.9-9.3 20.3-14 34.4-14 9.2 0 17.5 2.2 24.9 6.6 7.4 4.4 13 10.5 16.9 18.4 3.9 7.9 5.8 16.8 5.8 26.7 0 10.1-2 19.1-6.1 27.1s-9.8 14-17.3 18.1c-7.5 4.1-15.5 6.1-24.2 6.1-9.4 0-17.7-2.3-25.1-6.8-7.4-4.5-13-10.7-16.8-18.5-3.9-7.8-5.8-16.1-5.8-24.9zm112.4 48.5V2.8h44.1c8.9 0 15.6.9 20.2 2.7 4.6 1.8 8.3 4.9 11.1 9.5 2.8 4.5 4.1 9.5 4.1 15 0 7.1-2.3 13-6.9 17.9-4.6 4.8-11.6 7.9-21.2 9.2 3.5 1.7 6.1 3.3 7.9 5 3.8 3.5 7.5 7.9 10.9 13.2l17.3 27.1H574l-13.2-20.7c-3.8-6-7-10.5-9.5-13.7-2.5-3.2-4.7-5.4-6.7-6.7-2-1.3-4-2.1-6-2.6-1.5-.3-3.9-.5-7.3-.5H516v44.2h-12.9zm13.1-55.6h28.3c6 0 10.7-.6 14.1-1.9 3.4-1.2 6-3.2 7.7-6 1.8-2.7 2.6-5.7 2.6-8.9 0-4.7-1.7-8.6-5.1-11.6-3.4-3-8.8-4.5-16.2-4.5h-31.5v32.9zm86.7 55.6V2.8h19.8l23.6 70.5c2.2 6.6 3.8 11.5 4.8 14.7 1.1-3.6 2.9-8.9 5.3-16l23.8-69.3h17.7v99.6h-12.7V19l-28.9 83.3h-11.9l-28.8-84.7v84.7h-12.7z" fill="#ff4b46"/></svg>