<svg xmlns="http://www.w3.org/2000/svg" viewBox="0 0 700 200"><path d="M3.5 137.3V5.7h17.4v116h64.8v15.5H3.5zm100.9-113V5.7h16.2v18.6h-16.2zm0 113V41.9h16.2v95.3h-16.2zm40.8 0V41.9h14.5v13.6c7-10.5 17.1-15.7 30.3-15.7 5.7 0 11 1 15.8 3.1 4.8 2.1 8.4 4.8 10.8 8.1 2.4 3.4 4.1 7.3 5 11.9.6 3 .9 8.2.9 15.7v58.6h-16.2v-58c0-6.6-.6-11.5-1.9-14.8-1.3-3.3-3.5-5.9-6.7-7.8-3.2-1.9-7-2.9-11.3-2.9-6.9 0-12.8 2.2-17.8 6.6-5 4.4-7.5 12.7-7.5 24.9v52.1h-15.9zm167.5-30.7l16.7 2.1c-2.6 9.8-7.5 17.3-14.6 22.7-7.1 5.4-16.2 8.1-27.3 8.1-13.9 0-25-4.3-33.2-12.9C246.1 118 242 106 242 90.5c0-16 4.1-28.5 12.4-37.3 8.3-8.9 19-13.3 32.1-13.3 12.7 0 23.2 4.3 31.2 13 8.1 8.7 12.1 20.9 12.1 36.6 0 1 0 2.4-.1 4.3h-71.1c.6 10.5 3.6 18.5 8.9 24.1 5.3 5.6 12 8.3 19.9 8.3 5.9 0 11-1.6 15.2-4.7 4.3-3.1 7.6-8.1 10.1-14.9zm-53.1-26.2h53.2c-.7-8-2.8-14-6.1-18-5.1-6.2-11.8-9.3-20-9.3-7.4 0-13.7 2.5-18.7 7.4-5.1 5-7.9 11.6-8.4 19.9zm93.9 56.9V54.5h-14.3V41.9h14.3V31.8c0-6.4.6-11.2 1.7-14.3 1.6-4.2 4.3-7.6 8.2-10.2 3.9-2.6 9.4-3.9 16.5-3.9 4.5 0 9.6.5 15.1 1.6l-2.4 14.1c-3.4-.6-6.5-.9-9.5-.9-4.9 0-8.4 1-10.4 3.1s-3.1 6-3.1 11.8v8.8h18.6v12.6h-18.6v82.7h-16.1zm41.2-47.7c0-17.6 4.9-30.7 14.7-39.2 8.2-7.1 18.2-10.6 30-10.6 13.1 0 23.8 4.3 32.1 12.9 8.3 8.6 12.5 20.4 12.5 35.6 0 12.3-1.8 21.9-5.5 28.9s-9 12.5-16.1 16.4c-7 3.9-14.7 5.8-23 5.8-13.3 0-24.1-4.3-32.4-12.8-8.2-8.6-12.3-20.9-12.3-37zm108 47.7V41.9h14.5v14.4c3.7-6.8 7.1-11.2 10.3-13.4 3.1-2.2 6.6-3.2 10.4-3.2 5.4 0 11 1.7 16.6 5.2L549 60c-3.9-2.3-7.9-3.5-11.8-3.5-3.5 0-6.7 1.1-9.5 3.2s-4.8 5.1-6 8.8c-1.8 5.7-2.7 12-2.7 18.8v49.9h-16.3zm61.4 0V41.9h14.4v13.4c3-4.7 7-8.4 11.9-11.3 5-2.8 10.6-4.3 17-4.3 7.1 0 12.8 1.5 17.4 4.4 4.5 2.9 7.7 7 9.6 12.3 7.5-11.1 17.4-16.7 29.4-16.7 9.5 0 16.7 2.6 21.8 7.9 5.1 5.2 7.6 13.3 7.6 24.2v65.4h-16.1v-60c0-6.5-.5-11.1-1.6-14-1-2.8-2.9-5.1-5.7-6.9-2.8-1.7-6-2.6-9.7-2.6-6.7 0-12.3 2.2-16.7 6.7-4.4 4.5-6.6 11.6-6.6 21.4v55.4h-16.2V75.3c0-7.2-1.3-12.6-3.9-16.2-2.6-3.6-6.9-5.4-12.9-5.4-4.5 0-8.8 1.2-12.6 3.6-3.9 2.4-6.7 5.9-8.4 10.5-1.7 4.6-2.6 11.2-2.6 19.9v49.5h-16.1z"/></svg>