<?xml version="1.0" encoding="utf-8"?>
<!-- Generator: Adobe Illustrator 19.2.1, SVG Export Plug-In . SVG Version: 6.00 Build 0)  -->
<svg version="1.1" id="Layer_1" xmlns="http://www.w3.org/2000/svg" xmlns:xlink="http://www.w3.org/1999/xlink" x="0px" y="0px"
	 viewBox="0 0 700 200" style="enable-background:new 0 0 700 200;" xml:space="preserve">
<style type="text/css">
	.st0{fill:#FCFCFC;}
</style>
<g>
	<path class="st0" d="M2.2,134.8V3.2h17.4v116h64.8v15.5H2.2z"/>
	<path class="st0" d="M103.2,21.8V3.2h16.2v18.6H103.2z M103.2,134.8V39.5h16.2v95.3H103.2z"/>
	<path class="st0" d="M143.9,134.8V39.5h14.5v13.6c7-10.5,17.1-15.7,30.3-15.7c5.7,0,11,1,15.8,3.1c4.8,2.1,8.4,4.8,10.8,8.1
		c2.4,3.4,4.1,7.3,5,11.9c0.6,3,0.9,8.2,0.9,15.7v58.6h-16.2v-58c0-6.6-0.6-11.5-1.9-14.8c-1.3-3.3-3.5-5.9-6.7-7.8
		c-3.2-1.9-7-2.9-11.3-2.9c-6.9,0-12.8,2.2-17.8,6.6c-5,4.4-7.5,12.7-7.5,24.9v52.1H143.9z"/>
	<path class="st0" d="M311.4,104.1l16.7,2.1c-2.6,9.8-7.5,17.3-14.6,22.7c-7.1,5.4-16.2,8.1-27.3,8.1c-13.9,0-25-4.3-33.2-12.9
		c-8.2-8.6-12.3-20.6-12.3-36.1c0-16,4.1-28.5,12.4-37.3c8.3-8.9,19-13.3,32.1-13.3c12.7,0,23.2,4.3,31.2,13
		c8.1,8.7,12.1,20.9,12.1,36.6c0,1,0,2.4-0.1,4.3h-71.1c0.6,10.5,3.6,18.5,8.9,24.1c5.3,5.6,12,8.3,19.9,8.3c5.9,0,11-1.6,15.2-4.7
		C305.6,115.9,308.9,110.9,311.4,104.1z M258.3,78h53.2c-0.7-8-2.8-14-6.1-18c-5.1-6.2-11.8-9.3-20-9.3c-7.4,0-13.7,2.5-18.7,7.4
		C261.7,63,258.9,69.7,258.3,78z"/>
	<path class="st0" d="M352.2,134.8V52.1h-14.3V39.5h14.3V29.4c0-6.4,0.6-11.2,1.7-14.3c1.6-4.2,4.3-7.6,8.2-10.2
		C366,2.3,371.5,1,378.6,1c4.5,0,9.6,0.5,15.1,1.6l-2.4,14.1c-3.4-0.6-6.5-0.9-9.5-0.9c-4.9,0-8.4,1-10.4,3.1c-2,2.1-3.1,6-3.1,11.8
		v8.8h18.6v12.6h-18.6v82.7H352.2z"/>
	<path class="st0" d="M393.4,87.2c0-17.6,4.9-30.7,14.7-39.2c8.2-7.1,18.2-10.6,30-10.6c13.1,0,23.8,4.3,32.1,12.9
		c8.3,8.6,12.5,20.4,12.5,35.6c0,12.3-1.8,21.9-5.5,28.9c-3.7,7-9,12.5-16.1,16.4c-7,3.9-14.7,5.8-23,5.8
		c-13.3,0-24.1-4.3-32.4-12.8C397.5,115.6,393.4,103.3,393.4,87.2z"/>
	<path class="st0" d="M501.5,134.8V39.5H516V54c3.7-6.8,7.1-11.2,10.3-13.4c3.1-2.2,6.6-3.2,10.4-3.2c5.4,0,11,1.7,16.6,5.2l-5.6,15
		c-3.9-2.3-7.9-3.5-11.8-3.5c-3.5,0-6.7,1.1-9.5,3.2c-2.8,2.1-4.8,5.1-6,8.8c-1.8,5.7-2.7,12-2.7,18.8v49.9H501.5z"/>
	<path class="st0" d="M562.9,134.8V39.5h14.4v13.4c3-4.7,7-8.4,11.9-11.3c5-2.8,10.6-4.3,17-4.3c7.1,0,12.8,1.5,17.4,4.4
		c4.5,2.9,7.7,7,9.6,12.3c7.5-11.1,17.4-16.7,29.4-16.7c9.5,0,16.7,2.6,21.8,7.9c5.1,5.2,7.6,13.3,7.6,24.2v65.4h-16.1v-60
		c0-6.5-0.5-11.1-1.6-14c-1-2.8-2.9-5.1-5.7-6.9c-2.8-1.7-6-2.6-9.7-2.6c-6.7,0-12.3,2.2-16.7,6.7c-4.4,4.5-6.6,11.6-6.6,21.4v55.4
		h-16.2V72.9c0-7.2-1.3-12.6-3.9-16.2c-2.6-3.6-6.9-5.4-12.9-5.4c-4.5,0-8.8,1.2-12.6,3.6c-3.9,2.4-6.7,5.9-8.4,10.5
		c-1.7,4.6-2.6,11.2-2.6,19.9v49.5H562.9z"/>
</g>
</svg>
