<?xml version="1.0" encoding="utf-8"?>
<!-- Generator: Adobe Illustrator 19.2.1, SVG Export Plug-In . SVG Version: 6.00 Build 0)  -->
<svg version="1.1" id="Layer_1" xmlns="http://www.w3.org/2000/svg" xmlns:xlink="http://www.w3.org/1999/xlink" x="0px" y="0px"
	 viewBox="0 0 700 200" style="enable-background:new 0 0 700 200;" xml:space="preserve">
<g>
	<path d="M3.5,137.3V5.7h17.4v116h64.8v15.5H3.5z"/>
	<path d="M104.4,24.3V5.7h16.2v18.6H104.4z M104.4,137.3V41.9h16.2v95.3H104.4z"/>
	<path d="M145.2,137.3V41.9h14.5v13.6c7-10.5,17.1-15.7,30.3-15.7c5.7,0,11,1,15.8,3.1c4.8,2.1,8.4,4.8,10.8,8.1
		c2.4,3.4,4.1,7.3,5,11.9c0.6,3,0.9,8.2,0.9,15.7v58.6h-16.2v-58c0-6.6-0.6-11.5-1.9-14.8c-1.3-3.3-3.5-5.9-6.7-7.8
		c-3.2-1.9-7-2.9-11.3-2.9c-6.9,0-12.8,2.2-17.8,6.6c-5,4.4-7.5,12.7-7.5,24.9v52.1H145.2z"/>
	<path d="M312.7,106.6l16.7,2.1c-2.6,9.8-7.5,17.3-14.6,22.7c-7.1,5.4-16.2,8.1-27.3,8.1c-13.9,0-25-4.3-33.2-12.9
		c-8.2-8.6-12.3-20.6-12.3-36.1c0-16,4.1-28.5,12.4-37.3c8.3-8.9,19-13.3,32.1-13.3c12.7,0,23.2,4.3,31.2,13
		c8.1,8.7,12.1,20.9,12.1,36.6c0,1,0,2.4-0.1,4.3h-71.1c0.6,10.5,3.6,18.5,8.9,24.1c5.3,5.6,12,8.3,19.9,8.3c5.9,0,11-1.6,15.2-4.7
		C306.9,118.4,310.2,113.4,312.7,106.6z M259.6,80.4h53.2c-0.7-8-2.8-14-6.1-18c-5.1-6.2-11.8-9.3-20-9.3c-7.4,0-13.7,2.5-18.7,7.4
		C262.9,65.5,260.1,72.1,259.6,80.4z"/>
	<path d="M353.5,137.3V54.5h-14.3V41.9h14.3V31.8c0-6.4,0.6-11.2,1.7-14.3c1.6-4.2,4.3-7.6,8.2-10.2c3.9-2.6,9.4-3.9,16.5-3.9
		c4.5,0,9.6,0.5,15.1,1.6l-2.4,14.1c-3.4-0.6-6.5-0.9-9.5-0.9c-4.9,0-8.4,1-10.4,3.1c-2,2.1-3.1,6-3.1,11.8v8.8h18.6v12.6h-18.6
		v82.7H353.5z"/>
	<path d="M394.7,89.6c0-17.6,4.9-30.7,14.7-39.2c8.2-7.1,18.2-10.6,30-10.6c13.1,0,23.8,4.3,32.1,12.9c8.3,8.6,12.5,20.4,12.5,35.6
		c0,12.3-1.8,21.9-5.5,28.9c-3.7,7-9,12.5-16.1,16.4c-7,3.9-14.7,5.8-23,5.8c-13.3,0-24.1-4.3-32.4-12.8
		C398.8,118,394.7,105.7,394.7,89.6z"/>
	<path d="M502.7,137.3V41.9h14.5v14.4c3.7-6.8,7.1-11.2,10.3-13.4c3.1-2.2,6.6-3.2,10.4-3.2c5.4,0,11,1.7,16.6,5.2L549,60
		c-3.9-2.3-7.9-3.5-11.8-3.5c-3.5,0-6.7,1.1-9.5,3.2c-2.8,2.1-4.8,5.1-6,8.8c-1.8,5.7-2.7,12-2.7,18.8v49.9H502.7z"/>
	<path d="M564.1,137.3V41.9h14.4v13.4c3-4.7,7-8.4,11.9-11.3c5-2.8,10.6-4.3,17-4.3c7.1,0,12.8,1.5,17.4,4.4c4.5,2.9,7.7,7,9.6,12.3
		c7.5-11.1,17.4-16.7,29.4-16.7c9.5,0,16.7,2.6,21.8,7.9c5.1,5.2,7.6,13.3,7.6,24.2v65.4h-16.1v-60c0-6.5-0.5-11.1-1.6-14
		c-1-2.8-2.9-5.1-5.7-6.9c-2.8-1.7-6-2.6-9.7-2.6c-6.7,0-12.3,2.2-16.7,6.7c-4.4,4.5-6.6,11.6-6.6,21.4v55.4h-16.2V75.3
		c0-7.2-1.3-12.6-3.9-16.2c-2.6-3.6-6.9-5.4-12.9-5.4c-4.5,0-8.8,1.2-12.6,3.6c-3.9,2.4-6.7,5.9-8.4,10.5
		c-1.7,4.6-2.6,11.2-2.6,19.9v49.5H564.1z"/>
</g>
</svg>
